solid Onshape
  facet normal 0 0 -1
    outer loop
      vertex -75 49.9684 0
      vertex -77 51.9731 0
      vertex 75 49.9684 0
    endloop
  endfacet
  facet normal 0 0 -1
    outer loop
      vertex -77 51.9731 0
      vertex 77 51.9731 0
      vertex 75 49.9684 0
    endloop
  endfacet
  facet normal 0 0 -1
    outer loop
      vertex 75 49.9684 0
      vertex 77 51.9731 0
      vertex 75 -50.0314 0
    endloop
  endfacet
  facet normal 0 0 -1
    outer loop
      vertex 77 51.9731 0
      vertex 77 -52.0272 0
      vertex 75 -50.0314 0
    endloop
  endfacet
  facet normal 0 0 -1
    outer loop
      vertex 75 -50.0314 0
      vertex 77 -52.0272 0
      vertex -75.2337 -50.0314 0
    endloop
  endfacet
  facet normal 0 0 -1
    outer loop
      vertex 77 -52.0272 0
      vertex -77 -52.0272 0
      vertex -75.2337 -50.0314 0
    endloop
  endfacet
  facet normal 0 0 -1
    outer loop
      vertex -75.2337 -50.0314 0
      vertex -77 -52.0272 0
      vertex -75 49.9684 0
    endloop
  endfacet
  facet normal 0 0 -1
    outer loop
      vertex -77 -52.0272 0
      vertex -77 51.9731 0
      vertex -75 49.9684 0
    endloop
  endfacet
  facet normal 0 0 1
    outer loop
      vertex -75 49.9684 50
      vertex -77 51.9731 50
      vertex -75.2337 -50.0314 50
    endloop
  endfacet
  facet normal 0 0 1
    outer loop
      vertex -77 51.9731 50
      vertex -77 -52.0272 50
      vertex -75.2337 -50.0314 50
    endloop
  endfacet
  facet normal 0 0 1
    outer loop
      vertex -75.2337 -50.0314 50
      vertex -77 -52.0272 50
      vertex 75 -50.0314 50
    endloop
  endfacet
  facet normal 0 0 1
    outer loop
      vertex -77 -52.0272 50
      vertex 77 -52.0272 50
      vertex 75 -50.0314 50
    endloop
  endfacet
  facet normal 0 0 1
    outer loop
      vertex 75 -50.0314 50
      vertex 77 -52.0272 50
      vertex 75 49.9684 50
    endloop
  endfacet
  facet normal 0 0 1
    outer loop
      vertex 77 -52.0272 50
      vertex 77 51.9731 50
      vertex 75 49.9684 50
    endloop
  endfacet
  facet normal 0 0 1
    outer loop
      vertex 75 49.9684 50
      vertex 77 51.9731 50
      vertex -75 49.9684 50
    endloop
  endfacet
  facet normal 0 0 1
    outer loop
      vertex 77 51.9731 50
      vertex -77 51.9731 50
      vertex -75 49.9684 50
    endloop
  endfacet
  facet normal 0 1 0
    outer loop
      vertex -75.2337 -50.0314 50
      vertex 75 -50.0314 50
      vertex -75.2337 -50.0314 0
    endloop
  endfacet
  facet normal 0 1 0
    outer loop
      vertex 75 -50.0314 50
      vertex 75 -50.0314 0
      vertex -75.2337 -50.0314 0
    endloop
  endfacet
  facet normal 1 0 0
    outer loop
      vertex 77 51.9731 50
      vertex 77 -52.0272 50
      vertex 77 51.9731 0
    endloop
  endfacet
  facet normal 1 0 0
    outer loop
      vertex 77 -52.0272 50
      vertex 77 -52.0272 0
      vertex 77 51.9731 0
    endloop
  endfacet
  facet normal 0 -1 0
    outer loop
      vertex 75 49.9684 50
      vertex -75 49.9684 50
      vertex 75 49.9684 0
    endloop
  endfacet
  facet normal 0 -1 0
    outer loop
      vertex -75 49.9684 50
      vertex -75 49.9684 0
      vertex 75 49.9684 0
    endloop
  endfacet
  facet normal 0.999997 -0.0023365 0
    outer loop
      vertex -75 49.9684 50
      vertex -75.2337 -50.0314 50
      vertex -75 49.9684 0
    endloop
  endfacet
  facet normal 0.999997 -0.0023365 0
    outer loop
      vertex -75.2337 -50.0314 50
      vertex -75.2337 -50.0314 0
      vertex -75 49.9684 0
    endloop
  endfacet
  facet normal -1 0 0
    outer loop
      vertex 75 -50.0314 50
      vertex 75 49.9684 50
      vertex 75 -50.0314 0
    endloop
  endfacet
  facet normal -1 0 0
    outer loop
      vertex 75 49.9684 50
      vertex 75 49.9684 0
      vertex 75 -50.0314 0
    endloop
  endfacet
  facet normal 0 1 0
    outer loop
      vertex -77 51.9731 50
      vertex 77 51.9731 50
      vertex -77 51.9731 0
    endloop
  endfacet
  facet normal 0 1 0
    outer loop
      vertex 77 51.9731 50
      vertex 77 51.9731 0
      vertex -77 51.9731 0
    endloop
  endfacet
  facet normal -1 0 0
    outer loop
      vertex -77 -52.0272 50
      vertex -77 51.9731 50
      vertex -77 -52.0272 0
    endloop
  endfacet
  facet normal -1 0 0
    outer loop
      vertex -77 51.9731 50
      vertex -77 51.9731 0
      vertex -77 -52.0272 0
    endloop
  endfacet
  facet normal 0 -1 0
    outer loop
      vertex 77 -52.0272 50
      vertex -77 -52.0272 50
      vertex 77 -52.0272 0
    endloop
  endfacet
  facet normal 0 -1 0
    outer loop
      vertex -77 -52.0272 50
      vertex -77 -52.0272 0
      vertex 77 -52.0272 0
    endloop
  endfacet
endsolid Onshape
