solid Mesh
  facet normal 0 0 -1
    outer loop
      vertex -15 15 0
      vertex -16 16 0
      vertex 15 15 0
    endloop
  endfacet
  facet normal 0 0 -1
    outer loop
      vertex -16 16 0
      vertex 16 16 0
      vertex 15 15 0
    endloop
  endfacet
  facet normal 0 0 -1
    outer loop
      vertex 15 15 0
      vertex 16 16 0
      vertex 15 -15 0
    endloop
  endfacet
  facet normal 0 0 -1
    outer loop
      vertex 16 16 0
      vertex 16 -16 0
      vertex 15 -15 0
    endloop
  endfacet
  facet normal 0 0 -1
    outer loop
      vertex 15 -15 0
      vertex 16 -16 0
      vertex -15 -15 0
    endloop
  endfacet
  facet normal 0 0 -1
    outer loop
      vertex 16 -16 0
      vertex -16 -16 0
      vertex -15 -15 0
    endloop
  endfacet
  facet normal 0 0 -1
    outer loop
      vertex -15 -15 0
      vertex -16 -16 0
      vertex -15 15 0
    endloop
  endfacet
  facet normal 0 0 -1
    outer loop
      vertex -16 -16 0
      vertex -16 16 0
      vertex -15 15 0
    endloop
  endfacet
  facet normal 0 0 1
    outer loop
      vertex -15 -15 8
      vertex -16 -16 8
      vertex 15 -15 8
    endloop
  endfacet
  facet normal 0 0 1
    outer loop
      vertex -16 -16 8
      vertex 16 -16 8
      vertex 15 -15 8
    endloop
  endfacet
  facet normal 0 0 1
    outer loop
      vertex 15 -15 8
      vertex 16 -16 8
      vertex 15 15 8
    endloop
  endfacet
  facet normal 0 0 1
    outer loop
      vertex 16 -16 8
      vertex 16 16 8
      vertex 15 15 8
    endloop
  endfacet
  facet normal 0 0 1
    outer loop
      vertex 15 15 8
      vertex 16 16 8
      vertex -15 15 8
    endloop
  endfacet
  facet normal 0 0 1
    outer loop
      vertex 16 16 8
      vertex -16 16 8
      vertex -15 15 8
    endloop
  endfacet
  facet normal 0 0 1
    outer loop
      vertex -15 15 8
      vertex -16 16 8
      vertex -15 -15 8
    endloop
  endfacet
  facet normal 0 0 1
    outer loop
      vertex -16 16 8
      vertex -16 -16 8
      vertex -15 -15 8
    endloop
  endfacet
  facet normal 1 0 0
    outer loop
      vertex 16 16 8
      vertex 16 -16 8
      vertex 16 16 0
    endloop
  endfacet
  facet normal 1 0 0
    outer loop
      vertex 16 -16 8
      vertex 16 -16 0
      vertex 16 16 0
    endloop
  endfacet
  facet normal 0 1 0
    outer loop
      vertex -15 -15 8
      vertex 15 -15 8
      vertex -15 -15 0
    endloop
  endfacet
  facet normal 0 1 0
    outer loop
      vertex 15 -15 8
      vertex 15 -15 0
      vertex -15 -15 0
    endloop
  endfacet
  facet normal -1 0 0
    outer loop
      vertex -16 -16 8
      vertex -16 16 8
      vertex -16 -16 0
    endloop
  endfacet
  facet normal -1 0 0
    outer loop
      vertex -16 16 8
      vertex -16 16 0
      vertex -16 -16 0
    endloop
  endfacet
  facet normal 0 1 0
    outer loop
      vertex -16 16 8
      vertex 16 16 8
      vertex -16 16 0
    endloop
  endfacet
  facet normal 0 1 0
    outer loop
      vertex 16 16 8
      vertex 16 16 0
      vertex -16 16 0
    endloop
  endfacet
  facet normal 0 -1 0
    outer loop
      vertex 16 -16 8
      vertex -16 -16 8
      vertex 16 -16 0
    endloop
  endfacet
  facet normal 0 -1 0
    outer loop
      vertex -16 -16 8
      vertex -16 -16 0
      vertex 16 -16 0
    endloop
  endfacet
  facet normal 0 -1 0
    outer loop
      vertex 15 15 8
      vertex -15 15 8
      vertex 15 15 0
    endloop
  endfacet
  facet normal 0 -1 0
    outer loop
      vertex -15 15 8
      vertex -15 15 0
      vertex 15 15 0
    endloop
  endfacet
  facet normal 1 0 0
    outer loop
      vertex -15 15 8
      vertex -15 -15 8
      vertex -15 15 0
    endloop
  endfacet
  facet normal 1 0 0
    outer loop
      vertex -15 -15 8
      vertex -15 -15 0
      vertex -15 15 0
    endloop
  endfacet
  facet normal -1 0 0
    outer loop
      vertex 15 -15 8
      vertex 15 15 8
      vertex 15 -15 0
    endloop
  endfacet
  facet normal -1 0 0
    outer loop
      vertex 15 15 8
      vertex 15 15 0
      vertex 15 -15 0
    endloop
  endfacet
endsolid Mesh
